<?xml version='1.0' encoding='utf-8'?>
<svg xmlns="http://www.w3.org/2000/svg" width="1323.4mm" height="1323.4mm" version="1.1" viewBox="0 0 1323.4 1323.4"> <g transform="translate(5151.8 3189.5)"> <g transform="matrix(.68659 0 0 .67541 1918.5 -1749.8)" stroke-width="1.4685"> <g transform="matrix(8.607 0 0 8.607 -7839.7 1310.1)"> <path d="m-285.59-399.89h223.96v227.66h-223.96z" fill="#feeede" stop-color="#000000" stroke-linecap="square" stroke-width="1.4844" style="paint-order:markers stroke fill"/> <g transform="matrix(1.0883 0 0 1.0883 14.998 15.656)" stroke-width=".15677"> <path d="m-180.2-363.51c-1.4569-0.47007-2.4434-1.9996-2.5709-3.9864-0.0768-1.1967-0.0542-1.2939 0.42543-1.8292 0.6733-0.75146 1.4407-0.89994 4.026-0.77898 2.9979 0.14025 3.7347 0.57847 3.6707 2.1833-0.0481 1.207-1.4818 3.7536-2.3464 4.168-0.59213 0.2838-2.6056 0.43662-3.2049 0.24324z" fill="#eaa688"/> <path d="m-174.59-362.52c-0.70204-0.70204-0.63313-1.6405 0.17771-2.4202 0.34767-0.33432 0.94862-1.1473 1.3354-1.8066 0.38684-0.65932 0.94061-1.469 1.2306-1.7993 0.65013-0.74046 2.0163-1.2749 3.6279-1.4193 0.65978-0.0591 2.0417-0.33989 3.071-0.62398 1.0293-0.28408 2.3787-0.52895 2.9986-0.54415 4.3662-0.10701 11.641 0.20954 12.862 0.55968 1.3326 0.3822 1.8478 1.6394 0.9986 2.4371-0.38771 0.36423-1.6251 0.7331-7.6178 2.2709-4.0681 1.0439-9.6452 2.5598-11.289 3.0683-1.5226 0.4711-2.118 0.5585-4.3522 0.63886l-2.5883 0.0931z" fill="#eaa688"/> <path d="m-188.41-361.93c-0.80424-0.49035-2.2501-0.95249-4.6847-1.4974-3.5235-0.7886-10.941-3.942-11.782-5.009-0.48167-0.61094-0.42992-1.3589 0.1189-1.7185 0.39529-0.25901 0.81174-0.28095 3.3955-0.17889 5.7692 0.22788 12.784 0.72927 14.294 1.0216 1.8006 0.34865 2.85 2.0371 2.85 4.5855 0 1.4942-0.3245 2.324-1.0918 2.7918-0.79058 0.482-2.3136 0.48438-3.1001 5e-3z" fill="#eaa688"/> <path d="m-169.06-358.43c-0.85829-0.17483-1.4621-0.71885-1.7345-1.5628-0.23168-0.71768-0.22453-0.78195 0.11784-1.0592 0.25838-0.20922 0.86935-0.32729 2.0987-0.40558 0.95383-0.0608 2.6074-0.30561 3.6745-0.54415 2.209-0.49375 4.8672-0.90264 7.3423-1.1294 1.5066-0.13801 1.914-0.25707 3.616-1.0569 1.2454-0.58525 2.6875-1.0886 4.112-1.4352 2.0557-0.50019 3.1764-0.95886 5.6554-2.3145 1.0871-0.59452 1.489-0.66759 7.2822-1.3241 3.7252-0.42212 4.3378-0.44574 8.3785-0.32301 2.3977 0.0728 6.9788 0.12135 10.18 0.10786 5.371-0.0226 6.0214-0.0592 8.4162-0.47281 3.6165-0.62465 4.1756-0.60025 10.131 0.4422 2.5678 0.44948 4.8679 0.44858 6.4888-3e-3 2.8137-0.78311 5.5703-1.0608 9.8378-0.99086 2.1961 0.036 4.0656 0.11029 4.1543 0.16516 0.2592 0.16019 0.04182 5.5843-0.24647 6.1504-0.34865 0.68448-0.91876 1.1682-1.6423 1.3934-0.34475 0.1073-2.6509 0.2618-5.1248 0.34332-2.4739 0.0815-6.522 0.24325-8.9958 0.35938-2.4739 0.11614-6.1251 0.22298-8.1139 0.23743-1.9888 0.0145-4.37 0.11808-5.2917 0.23027-1.1513 0.14015-2.2001 0.15259-3.3514 0.0398-5.9965-0.58771-6.413-0.59708-12.517-0.28158-6.108 0.31571-6.7067 0.37659-9.5314 0.96932-1.9515 0.4095-5.8971 0.72536-9.1171 0.72987-1.243 2e-3 -3.0141 0.12326-3.9357 0.27003-0.92163 0.14678-2.3901 0.35367-3.2632 0.45975-0.87312 0.10608-2.4209 0.40024-3.4396 0.65367-1.8244 0.45391-1.9474 0.46083-8.2352 0.46313-3.5107 1e-3 -6.6363-0.0492-6.9457-0.11226z" fill="#eaa688"/> <path d="m-193.83-358.07c-0.67909-0.0776-3.4572-0.22282-6.1736-0.32271-5.3004-0.19491-9.665-0.63366-13.271-1.3341-3.0852-0.59922-4.1611-0.73542-8.3364-1.0552-1.9888-0.15233-3.8144-0.32798-4.0569-0.39034-0.24254-0.0623-3.3778-0.13057-6.9674-0.1516-3.7556-0.022-8.1739-0.15612-10.407-0.3159-2.7712-0.19828-4.3596-0.23252-5.5562-0.11978-0.92163 0.0868-3.3426 0.28655-5.3799 0.44381-2.0373 0.15727-5.0932 0.51826-6.791 0.80221-3.492 0.58405-4.5553 0.63434-5.2974 0.25058-1.0069-0.52069-1.1408-1.0585-1.1408-4.5831 0-3.7012 0.16756-4.2864 1.4111-4.9278 0.6642-0.34257 0.95364-0.36095 4.9389-0.31367 2.3283 0.0276 5.9399 0.12706 8.0257 0.22099 4.7478 0.21379 15.904 0.49186 24.342 0.6067 7.2902 0.0992 8.6946 0.1935 14.376 0.96498 4.7745 0.64837 5.3616 0.78448 8.7291 2.0237 1.4079 0.5181 2.8773 1.0406 3.2653 1.1611 0.38805 0.12051 1.6977 0.59892 2.9104 1.0631 1.2962 0.49617 3.1499 1.0347 4.4979 1.3066 4.1253 0.83211 6.0882 2.1863 5.6573 3.9031-0.22321 0.88933-1.6714 1.122-4.7754 0.76734z" fill="#eaa688"/> <path d="m-193.75-353.22c-0.66464-0.28998-4.0353-0.3921-8.9958-0.27257-1.4318 0.0345-3.2564-0.0341-4.1451-0.15575-1.1167-0.15292-2.7394-0.181-5.4719-0.0947-3.5223 0.11126-4.0896 0.0872-6.0854-0.25797-2.226-0.38499-2.5254-0.38565-5.817-0.0128-2.3893 0.27062-5.8032-0.49762-8.9262-2.0087-2.2509-1.0891-2.8919-1.6936-2.8919-2.7271 0-1.0929 0.19867-1.1583 3.4243-1.1276 1.5606 0.0149 4.1868 0.15186 5.8361 0.30442 1.6492 0.15255 5.3402 0.39925 8.2021 0.54821 5.3711 0.27957 6.536 0.38897 10.583 0.99389 1.5024 0.22456 4.0738 0.41474 6.9674 0.5153 4.7671 0.16567 7.8244 0.48554 9.2884 0.97181 1.8208 0.60476 2.4626 2.0252 1.3967 3.0911-0.46332 0.46333-0.62873 0.5149-1.6316 0.5087-0.6138-4e-3 -1.3938-0.12812-1.7334-0.27626z" fill="#eaa688"/> <path d="m-84.473-347.41c-0.19403-0.0434-1.2656-0.30557-2.3812-0.58269-2.9741-0.73875-4.6079-1.0341-6.8674-1.2417-2.2755-0.209-4.5469-0.66794-6.6263-1.3389-1.9666-0.63452-4.6108-0.75614-7.1135-0.32716-1.6789 0.28778-2.1036 0.29643-4.4729 0.0911-1.8543-0.16067-4.0448-0.19086-7.5102-0.10352-4.4258 0.11156-5.1109 0.0892-7.1853-0.23495-2.3912-0.37361-3.3155-0.4376-10.583-0.7327-2.4254-0.0985-4.6478-0.23077-4.9389-0.29397s-5.5298-0.12313-11.642-0.13317c-10.088-0.0166-11.197-0.0467-12.03-0.32703-1.5509-0.52187-2.5219-1.5916-2.5219-2.7784 0-0.40064 0.17362-0.72919 0.62258-1.1782l0.62258-0.62258 1.2736 0.0995c0.70048 0.0547 1.9161 0.21982 2.7014 0.36692 1.2579 0.23563 1.7827 0.23796 4.4097 0.0196 1.6609-0.13807 3.5289-0.40164 4.2166-0.59494 0.67909-0.19088 1.9888-0.46845 2.9104-0.61683 2.3546-0.37908 15.588-1.3534 18.303-1.3475 0.60774 1e-3 2.9493-0.23082 5.2035-0.51585l4.0985-0.51824 13.141-0.10827c7.4784-0.0616 14.15-0.0382 15.482 0.0543 1.7421 0.12103 2.9149 0.10077 4.5861-0.0793 1.2432-0.13391 2.8359-0.19444 3.5684-0.13559 0.96352 0.0774 1.8837 6e-3 3.3872-0.26438 2.4482-0.4396 2.8232-0.45188 3.4769-0.11384 0.98873 0.51129 1.1156 1.1398 1.0469 5.1869-0.03397 2.0022 6e-3 4.315 0.08886 5.1396 0.14224 1.4158 0.1273 1.5337-0.26809 2.1167-0.64498 0.95092-1.388 1.2377-3.1457 1.214-0.82462-0.0111-1.6581-0.0557-1.8521-0.099z" fill="#eaa688"/> <path d="m-215.35-343.7c-0.29104-0.16165-1.0876-0.82184-1.7701-1.4671-1.0701-1.0117-1.4221-1.2298-2.5576-1.5846-0.72421-0.22627-1.9914-0.75273-2.816-1.1699s-1.9748-0.89468-2.5561-1.0611c-1.1434-0.32743-2.2064-1.1924-2.2064-1.7954 0-0.1887 0.16747-0.49429 0.37216-0.6791 0.35524-0.32074 0.6822-0.333 7.1878-0.26959 10.741 0.10468 13.453 0.0966 20.133-0.0598 5.531-0.12953 6.376-0.11339 7.2401 0.13833 1.2488 0.36378 1.8359 0.96473 1.8359 1.8794 0 1.3558-0.89046 1.8506-3.811 2.1175-2.8926 0.26442-3.309 0.32989-6.2352 0.98027-1.4552 0.32343-4.0601 0.87622-5.7886 1.2284-2.123 0.43259-3.6111 0.84384-4.5861 1.2674-1.7527 0.76145-3.5755 0.95646-4.4419 0.47522z" fill="#eaa688"/> <path d="m-266.4-343.22c-0.48367-0.48366-0.91384-2.6605-0.85704-4.337 0.0263-0.77611-0.0546-2.3239-0.17975-3.4396-0.19619-1.7488-0.18961-2.2809 0.0477-3.8595 0.15141-1.0071 0.41084-2.0605 0.57649-2.3409 0.48467-0.82049 1.4619-1.1659 3.6603-1.2936 2.1726-0.12627 6.7731-0.588 6.9504-0.69757 0.0633-0.0391 0.78756-0.16213 1.6094-0.27333 0.82188-0.11119 2.8834-0.51059 4.5811-0.88755 4.2994-0.95463 4.1752-0.9417 5.3799-0.55993 1.671 0.52955 1.871 1.3997 0.61125 2.6594-0.31131 0.31131-0.97307 0.77189-1.4706 1.0235-0.4975 0.25161-1.3411 0.75108-1.8747 1.1099-0.53358 0.35885-1.5258 0.97531-2.2049 1.3699-2.0526 1.1927-3.5453 2.3788-4.7322 3.7603-0.91291 1.0626-1.5442 1.5704-3.3172 2.6687-1.238 0.76687-2.8625 1.9709-3.7376 2.7703-1.4997 1.3699-3.6258 2.6642-4.3763 2.6642-0.18099 0-0.48086-0.15179-0.66638-0.33731z" fill="#eaa688"/> <path d="m-182.42-340.42c-1.775-0.72104-2.9565-1.5187-4.1294-2.7879-1.1371-1.2305-2.001-2.8529-2.2611-4.2464-0.0975-0.52257-0.17498-1.8322-0.17212-2.9104 5e-3 -1.8672 0.045-2.0776 0.84215-4.4297 0.51484-1.5191 1.0972-2.8609 1.5132-3.4866 1.2507-1.8812 3.8637-3.8404 5.9177-4.4372 2.5827-0.75034 5.51 0.10797 7.1769 2.1043 0.37646 0.45088 1.1375 1.3338 1.6912 1.9621 2.0668 2.3452 2.715 4.1263 2.5594 7.0324-0.17476 3.2644-1.5687 6.313-3.9972 8.7422-1.5534 1.5538-2.603 2.217-4.2178 2.6647-1.7667 0.48988-3.3728 0.42217-4.923-0.20753z" fill="#dc6d55"/> <path d="m-151.87-337.39c-1.7318-0.61365-4.8337-1.8751-5.8018-2.3594-1.3659-0.68336-6.5476-3.8608-8.3785-5.1376-2.2532-1.5714-2.6458-2.0854-2.6458-3.4635 0-1.9815 1.274-2.8932 3.6508-2.6126 1.3532 0.1598 6.819 0.4498 12.231 0.64898 1.9928 0.0733 3.7146 0.18981 3.8263 0.25884 0.1117 0.069 2.2119 0.0318 4.6671-0.0828 5.2548-0.24523 5.9737-0.17756 6.7905 0.63922 1.3082 1.3082 0.46554 2.7256-4.5898 7.72-4.6311 4.5754-6.6541 5.486-9.7503 4.3889z" fill="#eaa688"/> <path d="m-81.269-331.68c-0.27496-0.1434-1.2275-0.84157-2.1167-1.5515-0.88921-0.70991-2.1054-1.6626-2.7026-2.117-0.59722-0.45444-1.7878-1.4289-2.6458-2.1655-1.867-1.6029-2.9636-2.2398-5.8821-3.4168-1.8879-0.7613-2.3759-0.8892-3.4002-0.89108-1.4392-3e-3 -2.2123 0.29678-6.1226 2.3713-3.17 1.6818-4.352 2.1557-5.936 2.38-2.3616 0.33445-3.9691-0.2277-6.7683-2.3669-4.1281-3.1548-7.6368-5.2273-10.933-6.4582-1.9155-0.71523-2.9218-1.2322-3.2164-1.6525-0.0713-0.10169-0.13081-0.40038-0.1323-0.66375-4e-3 -0.63413 0.52847-0.91026 1.4792-0.76769 0.4048 0.0607 2.5587 0.18927 4.7864 0.2857 2.2277 0.0964 4.9632 0.25502 6.0789 0.3524 1.1157 0.0974 4.6082 0.25069 7.7611 0.3407 3.153 0.09 6.2883 0.2463 6.9674 0.34733 0.67909 0.10104 3.2191 0.26287 5.6444 0.35962 4.4358 0.17697 6.033 0.37261 12.131 1.486 2.8004 0.51128 3.7304 0.86922 4.4376 1.708 0.97358 1.1547 1.3292 2.539 1.8719 7.2868 0.44496 3.8927 0.44381 4.5911-0.0083 5.0432-0.42051 0.4205-0.63161 0.43517-1.2937 0.0899z" fill="#eaa688"/> <path d="m-208.67-331.11c-0.2034-0.0908-0.81511-0.93172-1.3594-1.8688-0.57303-0.98664-1.6216-2.4036-2.4912-3.3664-1.735-1.921-2.9184-3.6058-2.9184-4.1551 0-0.78571 0.69866-1.1421 3.286-1.6764 1.3456-0.27785 3.5579-0.77968 4.9161-1.1152 1.3582-0.3355 3.4616-0.74415 4.6743-0.90811 1.5591-0.21079 2.9539-0.54679 4.7625-1.1472 3.2925-1.0931 5.7994-1.6709 6.5989-1.5209 0.75345 0.14135 1.515 0.99202 1.515 1.6923 0 1.1836-0.76739 2.0894-2.3907 2.8218-0.58729 0.26497-1.7779 0.99981-2.6458 1.633s-2.4908 1.6457-3.6065 2.25c-1.1157 0.60432-2.4254 1.3781-2.9104 1.7195-1.4316 1.0077-5.6199 4.5637-6.0327 5.1221-0.43864 0.5933-0.87151 0.75413-1.3977 0.51933z" fill="#eaa688"/> <path d="m-160.17-324.58c-0.19306-0.21829-0.78237-1.1007-1.3096-1.9608-0.5272-0.86019-1.4082-2.0648-1.9577-2.6768-0.54954-0.61206-1.3623-1.8133-1.8061-2.6694-0.44385-0.8561-1.3281-2.1915-1.965-2.9676-1.2569-1.5316-2.6415-3.7085-3.3678-5.2948-0.53408-1.1666-0.49678-2.2002 0.10098-2.7979 0.60769-0.60769 2.0701-0.49804 3.8341 0.28748 1.2868 0.57305 5.7786 3.1284 9.115 5.1853 0.73555 0.4535 1.616 0.83087 2.2119 0.948 3.6396 0.71543 4.4295 1.2413 4.4295 2.9488 0 1.0648-0.49635 1.8004-3.0212 4.4771-4.7917 5.08-4.6168 4.9175-5.2961 4.9175-0.41827 0-0.73009-0.12784-0.96805-0.39687z" fill="#eaa688"/> <path d="m-200.57-322.18c-0.11694-0.0475-0.48087-0.45973-0.80873-0.91609-0.46567-0.64817-0.95126-1.0184-2.2191-1.6916-1.7902-0.9507-2.5442-1.6727-2.865-2.7432-0.51385-1.7151 0.54666-3.0264 3.8202-4.7238 1.1616-0.60226 2.6668-1.5415 3.3451-2.0872s2.265-1.7635 3.5262-2.7063c1.2612-0.94275 2.8884-2.2717 3.616-2.9532 1.3402-1.2553 1.9776-1.6736 2.8804-1.8903 0.43181-0.10368 0.59093-0.0194 1.1795 0.62445 0.37419 0.40936 0.72735 0.93157 0.7848 1.1605 0.18617 0.74173-0.52672 1.9207-2.2422 3.7081-1.9973 2.0811-2.3883 2.582-3.9596 5.0724-0.67332 1.0672-1.7087 2.5935-2.3008 3.3919s-1.4857 2.2083-1.9858 3.1331c-1.3615 2.5181-1.8611 2.9907-2.771 2.6212z" fill="#eaa688"/> <path d="m-195.23-321.11c-0.72091-0.72092 0.0445-2.2607 2.4718-4.9726 2.1473-2.3991 2.4451-2.8489 3.1015-4.6846 0.3184-0.89045 0.95265-2.1746 1.4094-2.8537 1.0833-1.6105 3.5446-4.246 4.3587-4.6671 0.35225-0.18223 0.77859-0.49653 0.94741-0.69843 0.16883-0.20191 0.42679-0.3671 0.57326-0.3671 0.41046 0 0.97187 0.65638 0.97187 1.1363 0 0.74971-1.2167 4.4799-1.9206 5.888-0.37228 0.74477-0.81089 1.9633-0.9747 2.7078-0.20733 0.94232-0.51688 1.6926-1.0186 2.4689-0.39643 0.61335-0.99205 1.7108-1.3236 2.4387-0.64048 1.4062-1.2402 2.1615-2.0532 2.5861-0.55652 0.2906-5.0482 1.295-5.7912 1.295-0.26114 0-0.59954-0.12473-0.75199-0.27718z" fill="#eaa688"/> <path d="m-170.24-314.95c-0.42645-0.17301-0.91466-1.2446-1.3541-2.9722-0.24677-0.97014-0.68999-2.4748-0.98494-3.3438-0.29496-0.86894-0.66037-2.258-0.81203-3.0868s-0.43516-2.3007-0.63001-3.2708c-0.1959-0.97538-0.46419-3.4986-0.60017-5.6444-0.41888-6.6102-0.34477-7.3556 0.74187-7.4621 0.44114-0.0432 0.75755 0.12024 1.6164 0.835 1.3729 1.1426 1.7855 1.6972 2.9163 3.9199 2.6048 5.1203 3.4836 6.5325 4.9824 8.0066 1.8042 1.7744 2.1858 2.3824 2.1866 3.4846 8.8e-4 1.115-0.29996 1.651-1.8671 3.3267-0.72006 0.76995-2.0184 2.3391-2.8853 3.4871-1.9879 2.6325-2.4963 3.0503-3.31 2.7201z" fill="#eaa688"/> <path d="m-175.75-312.13c-0.3039-0.25572-0.82221-1.0004-1.1518-1.6549-0.69635-1.3828-1.652-2.29-3.1755-3.0143-0.91378-0.43448-1.3949-0.5281-3.4798-0.6771-2.5846-0.18471-3.3609-0.42518-3.6877-1.1423-0.22604-0.49611 0.13259-1.3892 1.4179-3.531 1.0409-1.7345 1.5614-2.749 1.8941-3.6919 0.13911-0.3943 0.60855-1.3235 1.0432-2.0648 0.56876-0.97016 0.93458-1.911 1.3053-3.3572 0.6476-2.5264 1.471-4.9921 2.056-6.1568 0.69876-1.3912 1.6563-1.5559 2.7201-0.46785 0.95637 0.97819 1.1047 1.9258 0.96621 6.1734-0.13544 4.155-0.01 5.1757 0.94402 7.6772 0.28278 0.74151 0.60813 1.9038 0.72301 2.5829 0.11487 0.6791 0.59112 2.1475 1.0583 3.2632 0.4672 1.1157 0.90665 2.3732 0.97656 2.7946 0.17031 1.0266-0.16579 2.155-0.85053 2.8553-0.97757 0.99989-1.8972 1.137-2.7594 0.41146z" fill="#eaa688"/> <path d="m-224.61-299.66c-1.1157-0.18099-2.5841-0.41487-3.2632-0.51975-1.8101-0.27955-5.8148-0.24354-7.4369 0.0669-1.5824 0.3028-2.8243 0.33036-3.8822 0.0861-1.1937-0.27557-6.4155-2.5551-8.1076-3.5393-0.85994-0.50019-2.9288-1.6527-4.5975-2.5612-4.6385-2.5252-6.9553-3.9999-9.365-5.9609-0.74763-0.60842-2.034-1.5884-2.8586-2.1776-1.813-1.2956-2.7044-2.1939-3.1087-3.1332-0.2714-0.63041-0.30196-1.4476-0.28698-7.6729 0.022-9.1525 0.30005-11.657 1.5729-14.169 0.52602-1.038 1.9496-2.4899 3.5753-3.6464 4.2867-3.0493 7.7803-5.8033 9.6246-7.5869 3.4912-3.3764 7.8639-6.2317 10.268-6.7047 1.9852-0.39057 4.0863 0.27545 7.1063 2.2527 1.8113 1.1859 3.0436 2.3551 4.7346 4.4921 0.78955 0.99781 1.6943 1.9887 2.0106 2.2019 0.37711 0.25426 1.2731 0.51054 2.6035 0.74465 1.4578 0.25655 2.3854 0.53339 3.2974 0.98409 1.8898 0.93398 2.751 2.0023 4.5504 5.6447 1.2328 2.4955 1.7351 3.3046 2.9939 4.8224 0.83195 1.0031 1.9574 2.5906 2.501 3.5278 2.7809 4.7941 3.544 5.7015 6.942 8.2547 0.92164 0.69251 2.5052 2.0267 3.519 2.9649 1.3227 1.224 2.1946 1.8732 3.0868 2.2986 1.4411 0.68697 4.3128 1.354 7.5935 1.7639 1.2612 0.15755 2.8655 0.40406 3.5652 0.5478 1.6399 0.33689 6.2302 1.9011 7.3702 2.5116 1.162 0.62221 3.5514 2.9689 3.7185 3.6521 0.0706 0.2884 0.27496 0.71366 0.4542 0.94503 0.42613 0.55007 0.41383 1.3416-0.0306 1.9657-0.5127 0.72001-5.3162 3.7465-7.8727 4.9603-3.9995 1.8989-5.7557 2.3373-10.909 2.7236-6.2215 0.46629-7.0843 0.48259-9.5321 0.18004-2.8341-0.3503-5.339-0.35621-8.1068-0.0191-1.1642 0.14178-3.8232 0.2962-5.909 0.34316-3.1534 0.071-4.1341 0.0299-5.8208-0.24367z" fill="#8a3e35"/> <path d="m-188.45-282.68c-2.0416-0.21273-9.4018-1.1954-11.112-1.4837-3.7825-0.63735-10.519-2.0939-12.595-2.723-2.7923-0.84649-11.008-3.9405-12.637-4.759-0.7234-0.36353-1.9409-1.0153-2.7055-1.4483s-1.9156-0.98487-2.5576-1.2263c-2.1277-0.79995-3.8605-1.8116-4.6977-2.7428-0.99853-1.1106-1.0644-1.7436-0.218-2.0964 0.91452-0.38123 4.5198-0.29604 6.0413 0.14276 3.2474 0.93654 4.6985 1.2888 5.9972 1.456 0.77611 0.0999 1.927 0.26013 2.5576 0.35612 0.63059 0.096 2.8679 0.17611 4.9717 0.17806 3.4831 3e-3 3.9879-0.0358 5.6444-0.43696 2.7156-0.65758 3.9621-0.69918 8.463-0.28244 6.4385 0.59614 7.6775 0.50159 11.338-0.86513 4.816-1.7983 7.2212-3.03 10.1-5.1723 0.95213-0.70861 2.6036-1.8716 3.67-2.5844 3.0557-2.0427 3.8219-2.686 7.7457-6.5025 2.0296-1.9742 4.7585-4.4747 6.0642-5.5568 2.7309-2.2631 9.544-8.9766 12.647-12.462 1.1642-1.3077 3.1088-3.4126 4.3215-4.6778 1.2127-1.2651 2.8346-3.0018 3.6042-3.8594 1.8588-2.0712 4.7951-4.5151 6.5382-5.4417 1.4021-0.74535 1.4229-0.75012 3.2632-0.75012 1.7057 0 1.9427 0.0431 2.9986 0.54574 0.63059 0.30015 2.8928 1.7391 5.0271 3.1977 4.7248 3.2289 6.2424 4.158 8.0082 4.9027 1.8842 0.79466 3.0793 1.4121 4.4768 2.3128 0.65787 0.42402 1.2543 0.77094 1.3254 0.77094s0.64408-0.46258 1.2733-1.028c4.9674-4.4631 7.6191-5.8005 11.19-5.6437 2.8521 0.12524 4.3387 1.1078 9.9697 6.589 1.7971 1.7493 3.7927 3.5516 4.4348 4.0052 1.5562 1.0993 2.6961 2.4007 3.1765 3.6266 0.32249 0.82292 0.39442 1.3583 0.39585 2.946 0.0019 2.2539-0.21004 3.1407-0.99628 4.1663-0.89219 1.1638-1.533 1.402-4.2285 1.5714-1.2855 0.0808-2.7192 0.23321-3.186 0.33871-1.2631 0.28545-2.8693 1.0661-4.6336 2.2522-2.2665 1.5236-4.8296 2.9413-8.4523 4.6754-3.4293 1.6415-4.427 1.9914-9.4704 3.3209-3.6618 0.96533-4.9059 1.3955-6.8116 2.3553-1.5799 0.79569-4.5937 2.5774-6.9804 4.1267-2.9355 1.9056-5.5324 2.9802-10.308 4.2657-2.7267 0.73399-4.3608 1.3907-6.6464 2.6711-1.8603 1.0421-4.3325 2.2666-11.642 5.7662-3.5567 1.7029-4.5265 2.0185-10.319 3.3575-4.7895 1.1072-6.2172 1.2543-17.374 1.79-3.5634 0.17109-6.3711 0.19155-7.6729 0.0559z" fill="#702721"/> <path d="m-164.02-274.02c-0.19403-0.0296-1.5037-0.18408-2.9104-0.34336s-3.4308-0.5184-4.4979-0.79804-2.5753-0.66161-3.3514-0.84883c-8.081-1.9494-11.946-3.0652-14.817-4.2775-2.6-1.098-3.1772-1.4819-2.9841-1.9851 0.16095-0.41941 0.70833-0.3774 5.277 0.40498 9.1709 1.5705 14.502 1.6348 23.018 0.27755 6.1977-0.98778 6.7092-1.1454 12.436-3.8323 4.4046-2.0664 7.2682-3.5751 12.065-6.3564 4.5712-2.6506 5.5362-3.0796 9.0136-4.0074 1.4067-0.37529 3.0053-0.85004 3.5524-1.055 1.048-0.3926 4.0104-2.1172 8.7066-5.0686 3.905-2.4542 5.5646-3.2919 7.9762-4.0262 7.1734-2.1841 8.4324-2.7182 12.661-5.3708 4.1809-2.6225 5.0462-2.9774 9.9556-4.0823 4.3346-0.97558 5.2814-1.1065 6.2121-0.8588 1.8469 0.4915 2.8115 2.0121 2.939 4.6331 0.12476 2.5645-0.54576 7.451-1.2555 9.1496-0.35512 0.84992-1.2859 1.8663-2.08 2.2715-0.36655 0.18701-1.5647 0.58172-2.6625 0.87714-1.0978 0.29543-2.6311 0.8408-3.4072 1.212-1.9784 0.94611-5.8221 3.5426-8.0894 5.4646-1.0537 0.89321-2.3634 1.9247-2.9104 2.2921-0.54703 0.36744-3.6539 1.9903-6.9042 3.6064-4.9862 2.4792-6.4056 3.102-9.084 3.9856-5.6323 1.858-9.4551 2.4629-13.345 2.1115-1.294-0.11687-3.9402-0.2167-5.8804-0.22186-3.1038-8e-3 -3.6919 0.0367-4.8934 0.37415-2.0685 0.58092-3.1898 1.0805-6.337 2.823-3.0882 1.7099-3.6166 1.9612-5.5266 2.6287-2.4058 0.8408-3.4429 0.97174-8.1139 1.0245-2.4254 0.0274-4.5685 0.0256-4.7625-4e-3z" fill="#60201b"/> <path d="m-129.05-265.8c-1.3448-0.24592-2.5526-0.69104-4.8313-1.7805-2.9466-1.4088-3.2061-1.4662-6.6805-1.4784-2.847-0.01-3.1145 0.0194-5.2917 0.58138-1.2612 0.32555-3.1409 0.85759-4.1771 1.1823-2.9772 0.93294-4.3773 1.0654-7.3976 0.69989-1.3951-0.16883-2.6952-0.40479-2.8892-0.52436s-0.59834-0.26537-0.89846-0.32399c-0.30013-0.0586-1.6098-0.51214-2.9104-1.0078s-2.7472-1.0103-3.2146-1.1437c-1.0399-0.29666-3.6596-1.6227-5.0224-2.5422-0.55378-0.37365-1.3492-0.8921-1.7677-1.1521-0.78093-0.48524-0.90155-0.87559-0.37332-1.2082 0.19937-0.12553 0.94079 0.0244 2.6458 0.53508 2.4611 0.73712 3.4595 0.87943 9.1045 1.2978 3.0312 0.22464 7.2167 0.0323 10.16-0.46677 2.104-0.35682 5.7095-1.9188 8.3337-3.6102 2.0366-1.3127 6.0022-3.0895 7.4913-3.3564 1.488-0.26671 2.7758-0.11149 5.0924 0.61382 4.6093 1.4431 7.6428 1.275 13.605-0.75411 3.0723-1.0456 6.0025-2.2456 7.3555-3.0123 2.1473-1.2168 3.6726-1.7648 6.9189-2.4856 2.9416-0.6532 4.8552-1.8005 9.1854-5.5074 4.0098-3.4326 7.0658-5.4648 8.5809-5.706 1.9013-0.30278 2.9946 0.89227 4.501 4.9197 0.58274 1.558 0.70788 2.668 1.0076 8.9378 0.08301 1.7365 0.32833 4.1349 0.56079 5.4827 0.40104 2.3252 0.40414 2.4197 0.105 3.203-0.23206 0.60761-0.46246 0.88028-0.93211 1.1032-0.76609 0.36354-1.1445 0.28175-2.9337-0.63408-1.8422-0.94297-2.9096-1.1231-5.1449-0.86805-2.5613 0.29222-6.6064 1.1121-9.0286 1.83-1.1527 0.34163-2.6118 0.74676-3.2424 0.90027s-2.0593 0.71488-3.175 1.2475c-2.4769 1.1824-3.5592 1.4156-7.7611 1.6717-3.9521 0.2409-5.4272 0.56776-8.7362 1.9359-1.3609 0.56267-2.7897 1.1134-3.175 1.224-0.93372 0.26777-4.0192 0.38743-5.0639 0.19638z" fill="#411c1a"/> <path d="m-157.77-264.8c-0.10509-0.0968-4.8785-0.7142-5.4617-0.70638-0.24254 3e-3 -1.8697-0.10551-3.616-0.24171-1.7462-0.13619-3.81-0.20075-4.5861-0.14347-0.77611 0.0573-2.2049 0.0242-3.175-0.0734-0.97014-0.0977-2.9545-0.29608-4.4097-0.44093-3.0747-0.30607-7.8372-1.2019-12.347-2.3224-5.4703-1.3592-5.663-1.441-11.561-4.9084-2.0818-1.224-4.4202-2.4716-5.1963-2.7725-2.8454-1.1033-5.3327-0.84629-10.632 1.0984-1.2879 0.47264-2.8717 0.95164-3.5195 1.0645-1.5144 0.26371-4.424 0.0904-6.3979-0.38099-2.5198-0.60182-7.1987-3.0392-10.353-5.3932-3.0069-2.2441-5.1499-3.258-8.187-3.8734-1.1551-0.23405-1.9312-0.27289-3.5935-0.17984-1.1662 0.0653-2.4282 0.20105-2.8046 0.30173-1.1328 0.303-4.6562 2.3751-6.7573 3.974-2.7111 2.0631-3.5586 2.4492-4.5449 2.0708-0.7561-0.29015-1.2336-2.5302-1.6124-7.5634-0.59905-7.9605-0.74734-15.331-0.3478-17.286 0.13874-0.6791 0.30451-2.5047 0.36837-4.057 0.0639-1.5522 0.19484-3.1324 0.29107-3.5116 0.25024-0.98596 1.0125-1.6919 1.827-1.6919 1.0543 0 2.0993 0.61491 8.2854 4.8752 1.7923 1.2344 7.6449 4.5622 9.8108 5.5784 0.90994 0.42697 2.8848 1.573 4.3885 2.5468 2.9731 1.9253 3.8802 2.4214 5.879 3.2154 0.72262 0.28706 4.0412 1.8691 7.3747 3.5156s6.4974 3.1675 7.031 3.3799c2.656 1.0575 9.3094 3.183 11.024 3.5218 1.0672 0.21083 3.0515 0.66125 4.4097 1.0009 1.3582 0.33969 4.0173 0.92423 5.909 1.299 5.634 1.1161 7.0681 1.6196 9.9247 3.4843 1.6298 1.064 2.3231 1.3098 5.31 1.8829 4.6679 0.89566 5.7015 1.3931 9.9372 4.7832 2.6152 2.093 4.0316 2.7969 8.5173 4.2326 1.9609 0.62759 3.696 1.2084 3.8557 1.2906 0.39899 0.20546 3.9418 1.182 5.1955 1.4321 0.90041 0.17962 1.018 0.25071 0.97014 0.58661-0.0401 0.28144-0.19563 0.39605-0.58995 0.43468-0.29453 0.0289-0.57234 0.0185-0.61736-0.023z" fill="#60201b"/> <path d="m-194.72-260.7c-6.0915-0.25742-10.6-0.53633-12.876-0.79661-8.1999-0.93747-12.015-1.3204-14.728-1.4784-1.6978-0.0989-4.4192-0.27275-6.0476-0.38638-2.2509-0.15705-3.9849-0.15782-7.232-3e-3 -2.3491 0.11186-6.3745 0.24786-8.9454 0.30221-5.4644 0.11553-8.2634 0.30614-11.906 0.81083-3.3101 0.4586-4.6763 0.38843-6.0353-0.30996-1.2315-0.63288-1.9789-1.6671-2.6404-3.6538-0.42816-1.2858-0.48047-1.7058-0.48801-3.9183l-8e-3 -2.478 0.68884-1.3943c0.92291-1.8681 2.5607-3.4923 5.2202-5.1768 3.7549-2.3783 5.8687-3.1508 9.084-3.3198 2.1489-0.11294 3.8472 0.20691 5.6537 1.0648 1.3883 0.65932 6.4662 3.6828 9.5752 5.7014 3.9045 2.535 3.8744 2.5281 10.493 2.4308l5.0845-0.0747 1.5301-0.64722c2.7457-1.1614 4.3862-1.6607 5.8066-1.7673 2.6832-0.20145 4.2504 0.36402 7.9059 2.8524 3.598 2.4493 3.9061 2.5683 11.63 4.4942 2.0373 0.50797 4.4185 1.113 5.2917 1.3446 2.3298 0.61785 5.8104 1.2293 10.495 1.8438 4.2309 0.55496 5.8811 0.63358 19.522 0.93008 1.9576 0.0426 3.6443 0.12992 3.7483 0.19416 0.31594 0.19527 0.2124 0.60169-0.22657 0.88931-0.70911 0.46463-2.8549 0.7442-7.3456 0.95702-2.3768 0.11264-4.5993 0.24474-4.9389 0.29355-0.8317 0.11957-5.4405 0.39334-9.966 0.59199-2.0373 0.0894-4.3392 0.24477-5.1153 0.34518-3.8643 0.49999-7.5307 0.59936-13.229 0.35856z" fill="#411c1a"/> <path d="m-172.93-253.47c-1.8918-0.0862-4.3524-0.21781-5.4681-0.29253-1.8656-0.12494-2.0285-0.16417-2.0285-0.48863 0-0.30938 0.13017-0.35741 1.0583-0.39051 2.0535-0.0732 7.2637-0.62171 9.8705-1.0391 1.4512-0.23236 2.8752-0.42247 3.1644-0.42247 0.90887 0 2.6122-0.37317 4.0267-0.88217 2.0426-0.73502 8.0178-4.21 10.271-5.9734 4.3295-3.3881 6.9149-4.4397 10.936-4.448 2.4378-5e-3 3.7735 0.33528 6.6583 1.6965 1.3292 0.62721 2.8371 1.2305 3.351 1.3407 1.4316 0.30702 3.977 0.0818 6.1386-0.5431 1.0186-0.29451 2.6855-0.61966 3.7042-0.72256 1.6186-0.16352 2.1019-0.29767 3.8339-1.0643 2.6062-1.1536 3.3643-1.2908 5.6911-1.0305 4.7084 0.52673 7.3496-0.13509 15.093-3.782 3.9347-1.8531 5.0136-2.1381 8.1023-2.1402 2.3119-2e-3 2.5338 0.0285 3.4784 0.47122 2.5275 1.1846 4.1004 4.093 4.9907 9.2285 0.3607 2.0804 0.42515 5.1765 0.12859 6.1752-0.37701 1.2696-1.1044 2.1779-2.1595 2.6965l-0.97014 0.47684h-4.6743c-2.5709 0-8.1255-0.10723-12.344-0.23828-7.0954-0.22044-7.8806-0.21514-10.492 0.0708-2.2828 0.24996-3.5152 0.28433-6.4418 0.17961-10.486-0.37518-25.034-0.13296-30.695 0.51107-1.2127 0.13796-3.2367 0.33098-4.4979 0.42891-3.2366 0.25135-16.621 0.36874-20.726 0.18179z" fill="#dc6d55"/> <path d="m-220.82-239.62c-1.4552-0.12808-4.2333-0.32027-6.1736-0.42708s-5.5518-0.38996-8.0257-0.62922c-5.0314-0.4866-7.3571-0.48039-14.501 0.0387-4.4454 0.32302-7.1585 0.18947-9.782-0.48151-3.0572-0.7819-5.4547-2.5475-6.1232-4.5093-0.60086-1.7634-0.25638-4.7266 0.79258-6.8179 1.0591-2.1115 4.808-5.3352 7.3521-6.3222 0.77289-0.29983 1.3754-0.39042 2.5942-0.39005 1.9773 5.3e-4 3.229 0.43416 5.414 1.8753 0.84341 0.55628 2.2927 1.4062 3.2207 1.8888 2.61 1.3572 3.5174 1.2311 6.0449-0.84004 0.41115-0.33691 1.2781-1.407 1.9266-2.378 1.7629-2.6397 2.8249-3.2979 5.5565-3.4439 1.4036-0.075 1.9146-0.0262 2.9177 0.27846 2.0032 0.60845 3.1976 1.5282 7.0223 5.4075 4.6492 4.7156 6.5365 6.0809 8.4106 6.0848 0.45426 8.8e-4 1.7495-0.2364 2.8782-0.52744 3.1681-0.81687 3.8274-0.72049 6.3079 0.92216 1.669 1.1052 1.9598 1.2283 4.0367 1.7085 1.5469 0.35766 5.2143 1.6241 7.0136 2.422 2.3443 1.0395 9.7503 2.9674 12.751 3.3193 1.1436 0.1341 1.9053 0.62454 1.9053 1.2268 0 0.77206-0.45093 0.92633-3.9688 1.3578-3.2613 0.39999-3.7758 0.41182-19.138 0.44018-11.832 0.0218-16.45-0.0292-18.433-0.20373z" fill="#8a3e35"/> <path d="m-168.35-239.18c-0.82462-0.0865-2.8249-0.21771-4.445-0.29163-1.8001-0.0821-3.0242-0.21287-3.1474-0.33616-0.46769-0.46772-0.0914-0.82233 1.3719-1.2927 0.79882-0.25679 1.7595-0.70027 2.1349-0.98551 0.37536-0.28525 1.02-0.77402 1.4325-1.0862 1.6674-1.2617 3.9529-1.6928 6.5337-1.2324 0.82462 0.14711 2.4915 0.43359 3.7042 0.63663 3.513 0.58818 3.996 0.71363 4.482 1.164 0.52699 0.4884 0.56377 0.9809 0.13825 1.8512-0.36146 0.73921-0.95192 0.96991-3.3855 1.3227-2.1783 0.31581-6.9126 0.45006-8.8194 0.2501z" fill="#8a3e35"/> <path d="m-175.58-224.61c-2.5709-0.12758-4.8917-0.19173-5.1573-0.14257-0.28804 0.0533-0.66184-0.0278-0.92604-0.2009-0.90131-0.59056-0.31779-1.6933 0.89602-1.6933 1.1222 0 3.5954-0.54476 6.863-1.5116 3.1948-0.94535 4.8067-1.6036 6.4192-2.6215 0.8723-0.55066 2.0782-1.0342 3.2923-1.3201 1.2194-0.28716 1.6765-0.62547 2.7361-2.0252 0.71954-0.95049 1.1146-1.2962 1.8836-1.6482 0.88525-0.40528 1.0865-0.43231 2.2286-0.29928 0.6905 0.0804 1.9324 0.1506 2.7597 0.15592 1.4758 9e-3 1.5219-3e-3 2.4361-0.67469 1.213-0.89088 2.6734-2.6354 4.6476-5.552 1.7341-2.5618 3.0969-4.019 4.6167-4.9362 1.3052-0.78775 3.7914-1.8495 6.3746-2.7223 1.837-0.62071 2.3754-0.72583 4.0752-0.79562 3.856-0.15831 6.4467 0.73868 8.9237 3.0897 2.1439 2.0348 2.283 2.1211 3.6326 2.2537 0.65106 0.064 1.8584 0.27333 2.6831 0.46525 2.0771 0.48343 3.0903 0.48487 4.0799 6e-3 0.44516-0.2155 1.8395-1.3309 3.0985-2.4787 3.6114-3.2923 5.3767-4.3148 8.597-4.9794 2.7683-0.57135 5.1774-0.34531 7.7546 0.72757 1.71 0.7119 6.2737 3.4368 7.4469 4.4464 2.5167 2.1658 4.771 5.4713 5.5602 8.153 0.20126 0.6838 0.51617 1.566 0.6998 1.9604 0.51978 1.1163 0.72787 2.6372 0.65001 4.751-0.06844 1.8578-0.09989 1.9909-0.73962 3.1318-1.1318 2.0183-2.388 2.789-5.8382 3.5815-1.7234 0.39589-2.5263 0.48486-4.3215 0.47893-4.2411-0.014-9.6458-0.16097-13.582-0.36933-2.1828-0.11554-5.6356-0.29256-7.6729-0.39336-2.0373-0.10081-4.8154-0.30781-6.1736-0.46001-2.0242-0.22682-3.6462-0.25554-8.9958-0.15928-3.5895 0.0646-7.3995 0.18773-8.4667 0.27365-1.0672 0.0859-3.7262 0.24117-5.909 0.34501s-5.0006 0.27571-6.2618 0.38194-5.2299 0.26152-8.8194 0.34509c-3.5895 0.0836-7.1217 0.23122-7.8493 0.32811-2.3013 0.30647-6.8104 0.34864-11.642 0.10888z" fill="#702721"/> <path d="m-132.01-212.48c-8.0293-0.22569-13.043-0.60486-13.714-1.0371-0.48812-0.3145-0.51535-0.96763-0.0576-1.3819 0.3673-0.3324 5.335-1.3879 7.9267-1.6843 1.1722-0.13404 1.6507-0.28136 2.3306-0.71769 0.47057-0.30196 1.3377-0.69501 1.927-0.87343s1.4479-0.56601 1.9081-0.86132c1.0354-0.66442 2.4342-0.97978 3.6908-0.8321 0.52503 0.0617 1.2585 0.0304 1.63-0.0697 0.37144-0.10001 1.6949-0.93345 2.9409-1.8521 3.5493-2.6166 5.5566-3.4404 8.3835-3.4404 1.8197 0 3.1321 0.32334 5.0825 1.2522 3.042 1.4487 6.8019 4.4388 7.4843 5.952 0.6566 1.4561-0.14061 2.7381-2.0885 3.3586-1.4862 0.47343-1.7286 0.51995-4.7525 0.9119-5.0536 0.65504-6.2764 0.72797-10.168 0.60644-3.6395-0.11365-3.8812-0.10001-5.9952 0.33839-1.3918 0.28861-2.6582 0.44311-3.4396 0.41961-0.68019-0.0205-2.0702-0.0606-3.0888-0.0893z" fill="#60201b"/> <path d="m-264-210.41c-1.0625-0.19298-1.5701-0.52243-2.2578-1.4654-1.278-1.7524-1.4614-2.3181-1.5345-4.7317l-0.0673-2.2245 0.81533-2.44c1.3249-3.9649 2.805-6.4738 6.0518-10.258 1.6864-1.9656 3.1533-3.2279 4.8558-4.1784 2.3222-1.2964 6.15-2.2072 8.2431-1.9612 1.5284 0.1796 3.8124 0.75571 4.6312 1.1682 1.0586 0.53328 2.1618 1.4678 2.7506 2.3301 0.27735 0.40618 1.2383 2.1672 2.1355 3.9135 2.3792 4.631 4.3801 7.4965 5.2344 7.4965 0.23712 0 1.6307-1.4849 2.5987-2.769 1.0408-1.3807 2.021-2.1851 3.5143-2.8838 2.4968-1.1684 4.9078-1.3821 7.1164-0.63093 2.6326 0.89542 3.6136 1.6651 4.6422 3.6421 0.71718 1.3785 0.75786 1.4211 1.126 1.1785 0.21006-0.13842 0.95954-1.3497 1.6655-2.6918 1.4577-2.7712 2.2591-3.9025 3.9097-5.5194 1.5284-1.4972 2.7019-2.373 3.9846-2.9736 0.97716-0.45755 1.2116-0.49292 3.2668-0.49292h2.2141l2.0706 1.0111c2.3751 1.1598 3.102 1.7784 5.7108 4.8603 0.94889 1.121 2.1459 2.5207 2.6601 3.1105s1.3362 1.7324 1.8268 2.5391c0.49055 0.80669 1.2208 1.7861 1.6228 2.1764 0.67748 0.65788 3.4442 2.221 4.876 2.7549 2.1482 0.80098 9.7607 2.0235 15.081 2.4219 1.8433 0.13804 3.9467 0.33262 4.6743 0.43239 0.7276 0.0998 2.4088 0.29971 3.736 0.44429 3.2876 0.35815 7.7263 1.2708 8.1438 1.6746 0.56434 0.54576 0.13707 0.99377-1.1604 1.2167-2.2347 0.38402-6.5215 0.72668-11.337 0.90619-5.8601 0.21846-8.2022 0.40787-11.085 0.89652-3.9344 0.66687-9.3356 0.64542-21.723-0.0862-2.6194-0.15471-6.7469-0.36147-9.1722-0.45947s-6.156-0.2553-8.2903-0.34955c-4.2803-0.18903-21.474 0.0404-26.708 0.35633-1.6894 0.10198-4.2294 0.34527-5.6444 0.54065-1.4151 0.19538-4.3985 0.42955-6.6298 0.52039-2.2313 0.0908-5.3269 0.24454-6.8792 0.34157-5.1217 0.32016-5.8128 0.33918-6.6697 0.18354z" fill="#60201b"/> <path d="m-206.09-198.59c-2.0288-0.21381-9.1399-0.38361-17.815-0.4254-5.7577-0.0277-8.0279-0.0971-8.5194-0.26033-1.3747-0.45651-1.2264-1.6892 0.25552-2.1235 1.0966-0.32138 3.6666-1.5564 5.618-2.6998 0.92164-0.53999 2.2473-1.1862 2.946-1.4362 2.3732-0.84886 5.9544-0.95265 9.8422-0.28525 0.58208 0.0999 2.368 0.22958 3.9688 0.28812 2.4979 0.0914 3.1604 0.17941 4.6743 0.62134 1.4266 0.41644 2.3036 0.54469 4.5861 0.67068 1.5522 0.0857 3.6486 0.31805 4.6586 0.51639 1.01 0.19833 2.6769 0.47826 3.7042 0.62206s2.6615 0.42566 3.6316 0.62635 2.9148 0.48097 4.3215 0.62284c4.1771 0.42126 6.7654 0.80838 7.1878 1.075 0.43507 0.27464 0.53171 0.96924 0.17591 1.2645-0.19709 0.16357-1.7883 0.32573-6.6582 0.67855-0.82461 0.0597-4.2774 0.12444-7.6729 0.14377-3.3955 0.0193-7.8405 0.0813-9.8778 0.13767-2.0373 0.0564-4.2995 0.0398-5.0271-0.0369z" fill="#411c1a"/> <path d="m-264.17-183.46c-0.84614-0.23502-1.6491-1.0329-1.8867-1.8748-0.25859-0.91608-0.58853-6.9632-0.4487-8.2238 0.39677-3.577 2.3978-6.6142 5.8243-8.84 2.2-1.4291 3.1159-1.7121 5.8457-1.8064 2.7435-0.0947 4.3992 0.18158 6.8404 1.1416 3.2778 1.2889 5.0528 2.3416 7.7671 4.6064 1.9735 1.6467 3.0422 2.3326 5.2888 3.3941 2.1082 0.9962 4.1526 1.6937 5.7845 1.9736 0.96903 0.1662 1.7159 0.14785 4.057-0.0996 3.4876-0.36863 5.3252-0.3716 6.838-0.0109 0.69926 0.16667 2.5916 0.32674 4.8507 0.41029 3.1273 0.1157 3.8684 0.19645 4.7585 0.51859 0.57988 0.20985 1.8896 0.54403 2.9104 0.74261 1.0208 0.1986 3.1658 0.7862 4.7665 1.3058 3.3224 1.0785 7.1424 1.9631 11.732 2.7169 3.5211 0.57833 8.6069 0.99986 10.126 0.83928 1.0219-0.108 4.4978-0.71222 8.3044-1.4436 1.2127-0.23299 2.9894-0.50745 3.9483-0.60993 2.3398-0.25005 2.9837-0.42621 5.6623-1.5492 3.0966-1.2982 3.9933-1.7685 5.647-2.9618 0.77611-0.56002 2.3236-1.4504 3.4388-1.9787 1.6925-0.80174 2.3017-1.2084 3.6855-2.4606 2.3262-2.105 3.8377-3.043 6.1308-3.8047 2.6096-0.86688 4.0628-1.0637 7.1178-0.96414 3.0199 0.0984 4.15 0.4116 9.1096 2.5243 3.2808 1.3976 4.608 1.851 6.6561 2.2741 1.8377 0.37959 2.3834 0.35086 4.7943-0.25236 1.8451-0.46165 2.4194-0.52718 4.6369-0.52917 3.4242-3e-3 3.078 0.19036 6.7517-3.7726 0.83982-0.90594 2.0228-1.8098 4.6762-3.5728 4.5824-3.0447 6.247-3.7758 9.7909-4.3004 4.5015-0.66639 7.1409 0.9094 7.7151 4.6061 0.23954 1.5423 0.56686 11.68 0.50629 15.681-0.05757 3.8029-0.23546 4.4229-1.4374 5.0098-0.6407 0.31281-0.88611 0.32334-3.6353 0.15604-2.5695-0.15635-3.2403-0.13762-5.2219 0.14585-2.6258 0.37564-4.7991 0.41445-7.5562 0.13492-1.6087-0.16309-2.4165-0.14753-4.5964 0.0885-3.3143 0.35881-4.9734 0.3595-8.3968 4e-3 -1.8044-0.18768-5.1986-0.3127-10.123-0.37287-12.415-0.1517-38.264-0.0819-41.54 0.11209-8.4143 0.49844-11.692 0.5902-17.551 0.49135-3.3955-0.0573-7.1261-0.18672-8.2903-0.28763-5.2588-0.45586-41.036-0.72987-47.713-0.36543-7.7504 0.42302-9.7 0.57431-11.799 0.9156-1.8865 0.30672-3.1999 0.37013-8.6619 0.4182-4.1318 0.0363-6.677-0.01-7.1048-0.12853z" fill="#411c1a"/> </g> </g> </g> </g> </svg>